<svg width="50" height="50" viewBox="0 0 50 50" fill="none" xmlns="http://www.w3.org/2000/svg">
<path d="M50 23.4394V26.4659C49.8361 27.0565 49.8716 27.7446 49.7919 28.3574C48.5408 38.0385 41.2936 46.3745 31.923 49.0138V30.5653H37.2969L38.0786 24.3177H31.923V19.2913C31.923 18.9993 32.3636 18.1365 32.6028 17.9197C32.8286 17.7161 33.7453 17.2892 34.0243 17.2892H38.2756V11.6278L35.3971 11.4287C32.0691 11.3137 28.8186 11.5725 26.8037 14.5636C26.2701 15.3556 25.4751 17.2892 25.4751 18.2161V24.1695L25.329 24.3155H20.1012V30.5631H25.4751L25.3777 49.9872C24.7312 49.9585 24.0691 50.027 23.4225 49.9872C0.60265 48.6156 -8.52442 19.3798 9.65444 5.24531C25.4751 -7.05517 48.8375 3.60598 50 23.4394Z" fill="#FF7500"/>
</svg>
