<svg width="51" height="50" viewBox="0 0 51 50" fill="none" xmlns="http://www.w3.org/2000/svg">
<g clip-path="url(#clip0_1916_287)">
<path d="M26.0328 0L29.8447 0.436445C39.8727 2.21872 47.9788 10.2046 49.9373 20.186L50.3568 22.9389C50.2881 24.3125 50.4489 25.7736 50.3568 27.137C49.1291 45.2064 28.4766 55.8037 12.8155 46.6413C-8.82937 33.9771 -0.524536 1.16629 24.7627 0H26.0328ZM25.1339 9.5945C12.8301 9.80177 5.64051 23.8001 12.7658 33.9041C19.6807 43.7117 34.741 42.1863 39.5307 31.2066C44.0135 20.9319 36.3181 9.40766 25.1339 9.59596V9.5945Z" fill="#FF7500"/>
<path d="M38.9184 21.9741C39.3393 23.9651 39.4066 26.1488 38.8687 28.1193L11.8831 28.1004C11.4344 26.1415 11.3481 23.8877 11.9343 21.9595L38.9198 21.9741H38.9184ZM15.3866 24.5008C15.1819 23.9417 14.9115 22.4879 14.2377 22.3682C13.8826 22.3054 13.3622 22.6076 13.3359 22.9973L14.8998 27.4742C16.3878 28.2113 16.2255 26.3137 16.8496 25.5736C16.9914 26.032 17.3305 27.4625 17.7982 27.6026C18.3156 27.7559 18.624 27.588 18.8535 27.137C19.4177 26.0305 19.6705 24.4774 20.2289 23.3301C20.337 22.6397 19.6223 22.0996 19.004 22.5054C18.5071 22.8309 18.5042 24.0994 18.0233 24.5008C17.8304 23.8249 17.5775 22.1361 16.5778 22.4149C15.9405 22.593 15.844 23.5637 15.6248 24.1067C15.578 24.222 15.524 24.4979 15.3851 24.5008H15.3866ZM23.2675 22.5798C22.7443 22.0967 21.9345 22.4762 21.9258 23.1827L23.3947 27.2844C23.6943 27.7311 24.2146 27.7427 24.6195 27.4333L25.4453 25.5766C25.6485 26.067 25.913 27.5136 26.4743 27.623C27.1203 27.7486 27.3118 27.4581 27.5442 26.9414C27.8716 26.2145 28.6915 24.0585 28.8245 23.333C28.9576 22.6076 28.0894 22.0441 27.5018 22.6032C27.17 22.9185 26.9829 24.0643 26.7651 24.5022C26.2682 23.8979 26.3778 22.5185 25.4497 22.3974C24.431 22.2645 24.5157 24.0001 23.9808 24.5022C23.8492 24.0746 23.5511 22.844 23.2661 22.5798H23.2675ZM32.5794 24.5008C32.461 24.0527 32.157 22.8221 31.8325 22.5623C31.283 22.1215 30.6925 22.4747 30.5288 23.0922C30.862 23.8687 31.6498 27.0698 32.1789 27.4873C32.4464 27.6975 32.8893 27.7106 33.1714 27.4873C33.4827 27.2406 33.889 25.5751 33.9942 25.5751C34.3553 26.0918 34.4108 27.4493 35.089 27.6055C35.5991 27.7223 35.8768 27.5486 36.0989 27.0946C36.3986 26.4845 37.2975 24.06 37.4202 23.4338C37.5722 22.6572 36.8195 22.0471 36.1662 22.5477C35.8183 22.8148 35.5918 24.0716 35.3608 24.5022C34.9267 23.9096 34.8902 22.2339 33.8671 22.4207C32.977 22.5842 33.1494 23.987 32.5779 24.5022L32.5794 24.5008Z" fill="#FF7500"/>
<path d="M38.439 20.4019H33.8963L32.8746 16.6987L35.5581 15.6477C36.8429 16.9789 37.866 18.6386 38.439 20.4034V20.4019Z" fill="#FF7500"/>
<path d="M12.3567 20.4019C12.9063 18.6473 13.9455 16.9512 15.2375 15.6448L17.9254 16.6928L16.8994 20.4004H12.3567V20.4019Z" fill="#FF7500"/>
<path d="M16.8994 29.6753L17.921 33.3785L15.2375 34.4309C13.963 33.0997 12.915 31.4386 12.3567 29.6753H16.8994Z" fill="#FF7500"/>
<path d="M38.439 29.6753C37.8455 31.4488 36.8312 33.0661 35.5581 34.4309L32.8746 33.3785L33.7501 29.6753H38.439Z" fill="#FF7500"/>
<path d="M32.1876 20.402H26.1307V17.7658C27.8774 17.7527 29.6137 17.4914 31.3136 17.1235C31.7184 18.1774 32.04 19.2795 32.1876 20.402Z" fill="#FF7500"/>
<path d="M32.1876 29.6753C32.1832 30.1351 31.5211 32.799 31.2464 32.8895C29.5553 32.6093 27.8584 32.2794 26.1322 32.3115V29.6753H32.1891H32.1876Z" fill="#FF7500"/>
<path d="M24.5669 17.7658V20.402H18.6079L19.3986 17.1907L24.5669 17.7658Z" fill="#FF7500"/>
<path d="M24.5669 29.6753V32.3115L19.3972 32.8895L18.6079 29.6753H24.5669Z" fill="#FF7500"/>
<path d="M26.1307 11.2263C28.2354 11.7562 29.8564 13.7209 30.6252 15.6667C29.1504 15.9761 27.6435 16.1849 26.1307 16.2053V11.2263Z" fill="#FF7500"/>
<path d="M26.1307 33.8721C27.6435 33.875 29.1606 34.0516 30.6252 34.4107C29.8037 36.3112 28.2998 38.3723 26.1307 38.7533V33.8721Z" fill="#FF7500"/>
<path d="M24.5668 33.8721V38.7532C22.4387 38.3329 20.9625 36.2119 20.0739 34.3611C21.5661 34.1625 23.0482 33.8254 24.5668 33.8721Z" fill="#FF7500"/>
<path d="M24.5669 16.2038C23.0878 16.1673 21.6116 15.9834 20.1704 15.6652C20.9217 13.7238 22.5236 11.8379 24.5669 11.2249V16.2038Z" fill="#FF7500"/>
<path d="M34.3362 35.533C34.0658 36.1373 30.4864 38.1692 30.2335 37.9707C31.014 37.0248 31.7127 35.9899 32.1994 34.8601L34.3362 35.533Z" fill="#FF7500"/>
<path d="M20.4642 12.1052C19.7977 13.1124 19.0157 14.067 18.5992 15.2202L16.4594 14.5429C16.3965 14.3152 16.5208 14.3779 16.5851 14.321C17.6506 13.3635 19.1254 12.5869 20.4657 12.1038L20.4642 12.1052Z" fill="#FF7500"/>
<path d="M34.3362 14.5443L32.1965 15.2216C31.7185 14.0859 31.0447 13.0262 30.2335 12.1066C30.4966 11.9008 34.0658 13.9327 34.3362 14.5443Z" fill="#FF7500"/>
<path d="M18.5962 34.8601L19.1165 35.9505L20.4641 37.9707C19.0055 37.4306 17.6009 36.638 16.4594 35.5797L18.5962 34.8601Z" fill="#FF7500"/>
</g>
<defs>
<clipPath id="clip0_1916_287">
<rect width="50" height="50" fill="white" transform="translate(0.386108)"/>
</clipPath>
</defs>
</svg>
