<svg width="50" height="50" viewBox="0 0 50 50" fill="none" xmlns="http://www.w3.org/2000/svg">
<path d="M49.3818 23.4362V26.5197C49.2323 27.0744 49.2518 27.7093 49.1759 28.29C47.7675 38.9164 39.3361 47.5904 28.7683 49.3369L26.2417 49.6533C25.2211 49.6099 24.1723 49.7118 23.1561 49.6533C2.93689 48.4702 -7.39696 24.0776 6.09187 8.73825C20.636 -7.80588 48.1077 1.61788 49.3861 23.4362H49.3818ZM19.8559 10.8358C13.2079 11.1261 10.7658 13.7936 10.5188 20.3939C10.4105 23.2953 10.4105 26.6562 10.5188 29.5598C10.7723 36.314 13.3553 38.8969 20.1138 39.1504C23.0174 39.2588 26.3804 39.2588 29.2818 39.1504C36.0295 38.8969 38.6232 36.3096 38.8768 29.5598C38.9851 26.6583 38.9851 23.2975 38.8768 20.3939C38.6232 13.6354 36.0338 11.0568 29.2818 10.8033C26.2894 10.6906 22.8484 10.7036 19.8559 10.8358Z" fill="#FF7500"/>
<path d="M24.4865 13.3406C26.3392 13.3363 28.5104 13.3038 30.3414 13.4078C37.2451 13.7957 36.2353 19.1413 36.2635 24.357C36.2744 26.3917 36.387 28.5651 36.2722 30.6215C35.8865 37.4797 30.6015 36.5111 25.4161 36.5414C23.3446 36.5544 21.143 36.6671 19.052 36.5501C12.2198 36.1665 13.1602 30.979 13.1299 25.7937C13.1169 23.6875 13.0021 21.4599 13.1212 19.3364C13.5113 12.4132 19.1885 13.3514 24.4865 13.3406ZM31.9038 15.748C31.5007 15.8152 30.9915 16.2096 30.7856 16.5584C29.9016 18.0687 31.7152 19.8044 33.1779 18.8532C34.7402 17.8347 33.8149 15.4273 31.9038 15.748ZM23.6154 17.7741C18.0704 18.4003 15.533 25.3993 19.1083 29.6486C22.8267 34.0668 30.1464 32.5695 31.6892 27.0006C33.141 21.7633 28.933 17.1738 23.6176 17.7741H23.6154Z" fill="#FF7500"/>
<path d="M24.0964 20.2811C30.4844 19.5119 31.3208 29.1783 25.1279 29.6984C18.9349 30.2184 18.1028 21.0027 24.0964 20.2811Z" fill="#FF7500"/>
</svg>
