<svg width="51" height="50" viewBox="0 0 51 50" fill="none" xmlns="http://www.w3.org/2000/svg">
<path d="M26.9584 0L29.5168 0.32128C40.1962 2.06538 48.7736 10.8923 50.1778 21.6322C50.2549 22.2185 50.2382 22.861 50.3861 23.4243V26.5474C50.2361 27.1107 50.2549 27.7533 50.1778 28.3395C48.4881 41.0781 37.1274 50.5413 24.2687 49.9759C12.3246 49.4523 2.16388 40.1894 0.613831 28.3395C0.536746 27.7533 0.553413 27.1107 0.405492 26.5474C0.449243 25.5147 0.345073 24.4528 0.405492 23.4243C1.13051 11.03 11.4392 0.726012 23.8353 0H26.9584ZM14.5392 10.6649C10.6704 11.1259 10.762 16.7317 14.8059 16.9799C19.8602 17.2908 19.7373 10.0453 14.5392 10.6649ZM40.04 37.7714V25.7171C40.04 25.1392 39.5712 23.5829 39.3337 23.0071C37.9545 19.667 34.2294 18.2838 30.8626 19.3708C29.3772 19.8506 28.5084 20.8019 27.5459 21.9598V19.4229H21.4936V37.7714H27.5459V27.3778C27.5459 25.0287 29.7688 23.1907 32.0627 24.0314C33.1439 24.4278 33.9877 25.8736 33.9877 26.9876V37.7735H40.04V37.7714ZM18.1727 37.7714V19.569L18.0268 19.4229H12.1704L12.0246 19.569V37.7714H18.1748H18.1727Z" fill="#FF7500"/>
</svg>
